<svg xmlns="http://www.w3.org/2000/svg" id="SvgjsSvg326621" width="4096" height="1736.5219652792753" version="1.1" xmlns:xlink="http://www.w3.org/1999/xlink" xmlns:svgjs="http://svgjs.com/svgjs"><defs id="SvgjsDefs326622"></defs><g id="SvgjsG326623" transform="translate(328, 328) scale(34.4)" opacity="1"><defs id="SvgjsDefs98756"></defs><g id="SvgjsG98757" transform="scale(0.21645021645021645)" opacity="1"><g id="SvgjsG98758" class="Kq8C4Vc7T" transform="translate(-1.014365123323714, 0) scale(1.4511661277878638)" light-content="false" non-strokable="false" fill="#1d4eaa"><path d="M44 0l43.301 25v50L44 100 .699 75V25z"></path></g><g id="SvgjsG98759" class="yCzdEzhvpK" transform="translate(23.341289062641657, 32.703599539631625) scale(0.7181028261218295)" light-content="true" non-strokable="false" fill="#ffffff"><path d="M92 61c-3.71 0-7 1.84-8.99 4.67l-15.5-7.13c.32-1.13.49-2.31.49-3.54 0-5-2.82-9.33-6.95-11.51l5.67-16.58c.42.06.85.09 1.28.09 5.53 0 10-4.48 10-10S73.53 7 68 7c-5.52 0-10 4.48-10 10 0 3.67 1.98 6.89 4.94 8.62L57.27 42.2c-.74-.13-1.5-.2-2.27-.2-3.94 0-7.47 1.75-9.85 4.52L25.64 34.39c.23-.75.36-1.56.36-2.39 0-4.42-3.58-8-8-8s-8 3.58-8 8 3.58 8 8 8c2.14 0 4.08-.84 5.52-2.21l19.51 12.13C42.37 51.48 42 53.2 42 55c0 2.14.52 4.17 1.44 5.95L25.55 74.01A10.93 10.93 0 0 0 18 71c-6.07 0-11 4.92-11 11s4.93 11 11 11c6.08 0 11-4.92 11-11 0-1.71-.39-3.32-1.08-4.76l17.89-13.05a12.945 12.945 0 0 0 8.75 3.8l2.51 20.569A7.98 7.98 0 0 0 52 96c0 4.42 3.58 8 8 8s8-3.58 8-8a8 8 0 0 0-6.95-7.93L58.54 67.5c3.03-.84 5.61-2.77 7.3-5.33l15.5 7.13c-.22.86-.34 1.77-.34 2.7 0 6.08 4.93 11 11 11 6.08 0 11-4.92 11-11s-4.92-11-11-11zM62 17c0-3.31 2.69-6 6-6s6 2.69 6 6c0 3.29-2.66 5.97-5.94 6H68c-1.41 0-2.7-.48-3.72-1.3A5.955 5.955 0 0 1 62 17zM21.99 32.12a3.984 3.984 0 0 1-2.11 3.41A3.999 3.999 0 0 1 14 32c0-2.21 1.79-4 4-4s4 1.79 4 4c0 .04 0 .08-.01.12zM18 89c-3.86 0-7-3.14-7-7s3.14-7 7-7c1.59 0 3.05.53 4.23 1.43a6.955 6.955 0 0 1 2.37 3.24c.26.73.4 1.51.4 2.33 0 3.86-3.14 7-7 7zm42 3c.56 0 1.09.12 1.57.33C63 92.93 64 94.35 64 96c0 2.21-1.79 4-4 4a3.999 3.999 0 1 1 0-8zm3.81-35.16a8.917 8.917 0 0 1-1.67 3.63 8.933 8.933 0 0 1-4.09 2.99 8.815 8.815 0 0 1-3.98.49 8.955 8.955 0 0 1-4.97-2.16 9.098 9.098 0 0 1-2.37-3.24A8.943 8.943 0 0 1 46 55c0-1.03.17-2.01.5-2.93a8.948 8.948 0 0 1 2.11-3.4 8.95 8.95 0 0 1 7.34-2.62c1.38.14 2.66.6 3.78 1.3C62.29 48.94 64 51.77 64 55c0 .63-.07 1.25-.19 1.84zM92 79c-3.86 0-7-3.14-7-7 0-.33.02-.66.08-.98.18-1.38.78-2.64 1.67-3.64A6.965 6.965 0 0 1 92 65c3.86 0 7 3.14 7 7s-3.14 7-7 7z"></path></g><g id="SvgjsG98760" class="text" transform="translate(310.89053499027153, 72.92553686065068) scale(1)" light-content="false" fill="#292929"><path d="M-130.99 -11.38L-134.07 -11.38L-134.07 -40.11L-130.06 -40.11C-126.26 -40.11 -123.44 -38.97 -121.58 -36.7C-119.72 -34.43 -118.79 -30.85 -118.79 -25.98C-118.79 -21.11 -119.78 -17.46 -121.76 -15.03C-123.73 -12.6 -126.81 -11.38 -130.99 -11.38ZM-104.41 -26.74C-104.41 -34.69 -106.65 -40.77 -111.13 -44.98C-115.62 -49.19 -121.96 -51.3 -130.18 -51.3L-147.95 -51.3L-147.95 0L-131.34 0C-122.82 0 -116.2 -2.32 -111.48 -6.96C-106.77 -11.6 -104.41 -18.19 -104.41 -26.74Z M-42.32 0L-59.24 -51.49L-77.75 -51.49L-94.48 0L-79.24 0L-76.66 -9.63L-59.98 -9.63L-57.48 0ZM-73.78 -20.97C-70.71 -32.46 -68.92 -39.81 -68.4 -43.03C-67.93 -40.49 -66.09 -33.13 -62.86 -20.97Z M-15.2 -18.67L-11.69 -18.67L-0.81 0L14.89 0L-0.07 -22.34C5.75 -25.58 8.66 -30.18 8.66 -36.13C8.66 -46.24 1.68 -51.3 -12.27 -51.3L-29.08 -51.3L-29.08 0L-15.2 0ZM-15.2 -40.81L-12.47 -40.81C-7.71 -40.81 -5.34 -39.05 -5.34 -35.51C-5.34 -31.22 -7.77 -29.08 -12.63 -29.08L-15.2 -29.08Z M46.66 -13.21C46.5 -15.58 45.71 -19.61 44.28 -25.3L37.3 -51.3L21.71 -51.3L38.43 0L54.76 0L71.56 -51.3L56.05 -51.3L48.92 -25.14C47.67 -20.18 46.92 -16.2 46.66 -13.21Z M98.73 0L98.73 -51.3L84.81 -51.3L84.81 0Z M115.17 -14.89L115.17 -2.53C117.56 -1.39 119.93 -0.57 122.28 -0.06C124.63 0.45 127.54 0.7 130.99 0.7C137.05 0.75 141.93 -0.74 145.63 -3.78C149.33 -6.82 151.16 -10.76 151.11 -15.59C151.11 -19.07 150.24 -21.93 148.5 -24.17C146.78 -26.45 143.68 -28.62 139.18 -30.66C134.68 -32.7 131.91 -34.12 130.86 -34.93C129.81 -35.73 129.28 -36.64 129.28 -37.64C129.28 -38.64 129.71 -39.44 130.57 -40.03C131.42 -40.63 132.71 -40.93 134.42 -40.93C137.93 -40.93 142.08 -39.84 146.86 -37.66L151.11 -48.34C145.55 -50.8 140.13 -52.04 134.85 -52.04C128.85 -52.04 124.12 -50.71 120.66 -48.06C117.23 -45.41 115.52 -41.7 115.52 -36.91C115.52 -32.13 117.16 -28.34 120.43 -25.53C122.02 -24.18 124.63 -22.67 128.27 -21.01C131.9 -19.35 134.11 -18.26 134.87 -17.76C135.64 -17.25 136.23 -16.74 136.65 -16.22C137.04 -15.7 137.23 -15.09 137.23 -14.38C137.23 -13.21 136.73 -12.29 135.73 -11.6C134.73 -10.91 133.14 -10.56 130.97 -10.56C128.8 -10.56 126.32 -10.93 123.51 -11.66C120.7 -12.38 117.92 -13.46 115.17 -14.89Z"></path></g><g id="SvgjsG98761" class="text" transform="translate(251.67053499027156, 117.31435623428051) scale(1)" light-content="false" fill="#1d4eaa"><path d="M-82.94 -8.67L-80.53 -15.03C-80.13 -16.15 -79.84 -17.14 -79.65 -17.99C-79.34 -16.89 -79.02 -15.9 -78.7 -15.03L-76.32 -8.67ZM-70.55 0L-78.61 -20.6L-80.62 -20.6L-88.73 0L-86.31 0L-83.78 -6.52L-75.57 -6.52L-73.01 0Z M-63.08 -13.96C-60.78 -13.96 -59.63 -12.8 -59.63 -10.49C-59.63 -8.29 -60.77 -7.19 -63.05 -7.19C-64.14 -7.19 -64.99 -7.47 -65.59 -8.02C-66.19 -8.58 -66.49 -9.41 -66.49 -10.52C-66.49 -11.62 -66.2 -12.47 -65.62 -13.07C-65.04 -13.66 -64.19 -13.96 -63.08 -13.96ZM-55.48 -15.37L-60.8 -15.37C-61.46 -15.56 -62.18 -15.65 -62.98 -15.65C-64.83 -15.65 -66.27 -15.2 -67.28 -14.29C-68.29 -13.38 -68.8 -12.08 -68.8 -10.4C-68.8 -9.39 -68.55 -8.49 -68.05 -7.7C-67.54 -6.91 -66.89 -6.36 -66.1 -6.03C-66.76 -5.63 -67.23 -5.22 -67.52 -4.8C-67.81 -4.39 -67.96 -3.92 -67.96 -3.39C-67.96 -2.87 -67.83 -2.42 -67.58 -2.04C-67.32 -1.67 -66.99 -1.39 -66.57 -1.2C-67.65 -0.96 -68.49 -0.5 -69.1 0.17C-69.7 0.85 -70 1.66 -70 2.6C-70 3.98 -69.46 5.04 -68.36 5.78C-67.27 6.53 -65.72 6.91 -63.72 6.91C-61.1 6.91 -59.1 6.46 -57.74 5.57C-56.37 4.67 -55.69 3.37 -55.69 1.67C-55.69 0.33 -56.13 -0.69 -57.03 -1.4C-57.92 -2.1 -59.2 -2.45 -60.86 -2.45L-63.59 -2.45C-64.42 -2.45 -65.01 -2.54 -65.36 -2.74C-65.71 -2.93 -65.88 -3.24 -65.88 -3.68C-65.88 -4.47 -65.39 -5.13 -64.4 -5.66C-63.97 -5.58 -63.54 -5.54 -63.11 -5.54C-61.32 -5.54 -59.91 -5.98 -58.87 -6.88C-57.84 -7.78 -57.32 -8.99 -57.32 -10.49C-57.32 -11.7 -57.66 -12.72 -58.34 -13.57L-55.48 -13.91ZM-64.4 -0.34L-61.61 -0.34C-60.19 -0.34 -59.22 -0.18 -58.7 0.15C-58.19 0.48 -57.93 1.05 -57.93 1.87C-57.93 2.9 -58.41 3.7 -59.38 4.27C-60.34 4.84 -61.77 5.13 -63.69 5.13C-66.4 5.13 -67.76 4.26 -67.76 2.51C-67.76 1.63 -67.46 0.93 -66.87 0.42C-66.29 -0.09 -65.46 -0.34 -64.4 -0.34Z M-51.17 -17.99C-50.76 -17.99 -50.43 -18.13 -50.17 -18.39C-49.91 -18.66 -49.78 -19.04 -49.78 -19.54C-49.78 -20.05 -49.91 -20.43 -50.17 -20.7C-50.43 -20.96 -50.76 -21.1 -51.17 -21.1C-51.57 -21.1 -51.9 -20.97 -52.15 -20.71C-52.4 -20.45 -52.52 -20.06 -52.52 -19.55C-52.52 -19.04 -52.4 -18.66 -52.15 -18.39C-51.9 -18.13 -51.57 -17.99 -51.17 -17.99ZM-50 -15.37L-52.34 -15.37L-52.34 0L-50 0Z M-42.73 -21.83L-45.07 -21.83L-45.07 0L-42.73 0Z M-31.3 0.28C-30.27 0.28 -29.38 0.2 -28.64 0.05C-27.89 -0.11 -27.11 -0.36 -26.31 -0.72L-26.31 -2.79C-27.9 -2.09 -29.51 -1.75 -31.14 -1.75C-32.76 -1.75 -34.01 -2.22 -34.87 -3.16C-35.73 -4.1 -36.19 -5.47 -36.24 -7.27L-25.64 -7.27L-25.64 -8.75C-25.64 -10.82 -26.2 -12.48 -27.33 -13.75C-28.45 -15.02 -30 -15.65 -32 -15.65C-33.99 -15.65 -35.6 -14.93 -36.84 -13.47C-38.05 -12.02 -38.66 -10.05 -38.66 -7.58C-38.66 -5.1 -38.01 -3.18 -36.7 -1.79C-35.38 -0.41 -33.58 0.28 -31.3 0.28ZM-28.14 -9.17L-36.18 -9.17C-36.06 -10.59 -35.62 -11.7 -34.88 -12.5C-34.14 -13.31 -33.15 -13.71 -31.93 -13.71C-30.71 -13.71 -29.77 -13.32 -29.12 -12.54C-28.46 -11.76 -28.14 -10.63 -28.14 -9.17Z M3.34 -10.29C3.34 -13.58 2.46 -16.1 0.69 -17.87C-1.07 -19.64 -3.55 -20.52 -6.74 -20.52L-13.03 -20.52L-13.03 0L-7.35 0C-3.89 0 -1.24 -0.89 0.59 -2.68C2.43 -4.47 3.34 -7.01 3.34 -10.29ZM-7.74 -2.06L-10.64 -2.06L-10.64 -18.45L-7.18 -18.45C-4.53 -18.45 -2.53 -17.77 -1.19 -16.41C0.15 -15.05 0.82 -13.02 0.82 -10.31C0.82 -7.61 0.1 -5.55 -1.33 -4.16C-2.77 -2.76 -4.9 -2.06 -7.74 -2.06Z M14.07 0.28C15.1 0.28 15.99 0.2 16.74 0.05C17.49 -0.11 18.26 -0.36 19.06 -0.72L19.06 -2.79C17.47 -2.09 15.86 -1.75 14.24 -1.75C12.61 -1.75 11.36 -2.22 10.5 -3.16C9.64 -4.1 9.18 -5.47 9.13 -7.27L19.73 -7.27L19.73 -8.75C19.73 -10.82 19.17 -12.48 18.05 -13.75C16.93 -15.02 15.37 -15.65 13.38 -15.65C11.39 -15.65 9.77 -14.93 8.54 -13.47C7.32 -12.02 6.71 -10.05 6.71 -7.58C6.71 -5.1 7.37 -3.18 8.68 -1.79C10 -0.41 11.8 0.28 14.07 0.28ZM17.24 -9.17L9.19 -9.17C9.32 -10.59 9.75 -11.7 10.49 -12.5C11.24 -13.31 12.22 -13.71 13.44 -13.71C14.66 -13.71 15.6 -13.32 16.25 -12.54C16.91 -11.76 17.24 -10.63 17.24 -9.17Z M29.21 0L35.04 -15.37L32.55 -15.37C30.5 -9.74 29.24 -6.25 28.77 -4.9C28.29 -3.54 28 -2.61 27.89 -2.1L27.78 -2.1C27.65 -2.72 27.22 -4.1 26.47 -6.25L23.15 -15.37L20.65 -15.37L26.48 0Z M36.79 -10.3C36.79 -6.95 37.61 -4.34 39.25 -2.48C40.9 -0.64 43.21 0.28 46.2 0.28C49.19 0.28 51.51 -0.66 53.18 -2.54C54.84 -4.42 55.67 -7.01 55.67 -10.3C55.67 -13.59 54.84 -16.17 53.18 -18.03C51.53 -19.9 49.2 -20.83 46.22 -20.83C43.23 -20.83 40.91 -19.91 39.26 -18.08C37.61 -16.24 36.79 -13.65 36.79 -10.3ZM46.28 -18.71C48.55 -18.71 50.26 -18 51.42 -16.57C52.57 -15.15 53.15 -13.05 53.15 -10.27C53.15 -7.49 52.57 -5.38 51.41 -3.95C50.25 -2.52 48.54 -1.81 46.27 -1.81C44 -1.81 42.28 -2.53 41.09 -3.97C39.91 -5.41 39.32 -7.51 39.32 -10.27C39.32 -13.03 39.91 -15.12 41.09 -16.56C42.28 -17.99 44.01 -18.71 46.28 -18.71Z M71.01 -7.73C71.01 -5.83 70.64 -4.35 69.88 -3.27C69.13 -2.2 68.09 -1.67 66.76 -1.67C65.17 -1.67 64.01 -2.13 63.3 -3.06C62.58 -3.99 62.22 -5.54 62.22 -7.7L62.22 -8.22C62.24 -10.13 62.61 -11.52 63.31 -12.38C64.02 -13.24 65.15 -13.67 66.71 -13.67C68.08 -13.67 69.14 -13.16 69.89 -12.13C70.64 -11.1 71.01 -9.64 71.01 -7.73ZM73.43 -7.69C73.43 -10.21 72.88 -12.17 71.76 -13.57C70.65 -14.96 69.06 -15.65 67 -15.65C64.94 -15.65 63.34 -14.86 62.22 -13.27L62.11 -13.27L61.78 -15.37L59.88 -15.37L59.88 6.91L62.22 6.91L62.22 0.58C62.22 -0.18 62.16 -1.03 62.05 -1.98L62.22 -1.98C63.31 -0.47 64.89 0.28 66.95 0.28C69.02 0.28 70.61 -0.42 71.74 -1.81C72.87 -3.2 73.43 -5.16 73.43 -7.69Z M87.42 -4.19C87.42 -5.21 87.1 -6.06 86.46 -6.73C85.82 -7.4 84.59 -8.07 82.76 -8.75C81.41 -9.24 80.51 -9.61 80.04 -9.88C79.57 -10.14 79.24 -10.42 79.04 -10.72C78.83 -11.02 78.73 -11.36 78.73 -11.76C78.73 -12.38 79.02 -12.86 79.58 -13.2C80.15 -13.54 81.02 -13.71 82.2 -13.71C83.38 -13.71 84.74 -13.39 86.26 -12.75L87.09 -14.66C85.53 -15.32 83.89 -15.65 82.16 -15.65C80.42 -15.65 79.05 -15.29 78.03 -14.57C77.01 -13.85 76.5 -12.85 76.5 -11.57C76.5 -10.29 77.1 -9.25 78.3 -8.44C78.93 -8.03 79.97 -7.55 81.41 -7.01C82.86 -6.46 83.85 -5.97 84.38 -5.54C84.91 -5.11 85.17 -4.59 85.17 -3.99C85.17 -2.42 83.91 -1.64 81.38 -1.64C79.76 -1.64 78.15 -2.04 76.55 -2.85L76.55 -0.69C77.69 -0.04 79.26 0.28 81.24 0.28C83.23 0.28 84.75 -0.11 85.82 -0.88C86.88 -1.66 87.42 -2.76 87.42 -4.19Z"></path></g><rect id="SvgjsRect98762" width="110.0533169944657" height="2.570113516661173" fill="#1d4eaa" transform="translate(351.9466830055343, 108.57265931787751) scale(1)" light-content="false"></rect></g></g></svg>